{
	"asset":{
		"version":"2.0",
		"generator":"Maxon Cinema 4D 2025.1.1 (#200000219)"
	},
	"scenes":[{
		"nodes":[0]
	}],
	"nodes":[{
		"name":"Record & Sleeve",
		"translation":[-0.29394009709358218,
		0.0,
		0.48946645855903628],
		"rotation":[0.0,
		0.0,
		0.0,
		-1.0],
		"scale":[1.0,
		1.0,
		1.0],
		"children":[1]
	},
	{
		"name":"Vinyl Record",
		"translation":[1.776356799695581e-17,
		0.0014000000664964319,
		-0.13004763424396516],
		"rotation":[0.0,
		0.0,
		0.0,
		-1.0],
		"scale":[1.0,
		1.0,
		1.0],
		"children":[2,
		3,
		4]
	},
	{
		"name":"LP",
		"mesh":0
	},
	{
		"name":"Label Side A",
		"mesh":1
	},
	{
		"name":"Label Side B",
		"mesh":2
	}],
	"meshes":[{
		"name":"LP",
		"primitives":[{
			"attributes":{
				"POSITION":1,
				"NORMAL":2,
				"TEXCOORD_0":3
			},
			"indices":0,
			"material":0
		}]
	},
	{
		"name":"Label Side A",
		"primitives":[{
			"attributes":{
				"POSITION":5,
				"NORMAL":6,
				"TEXCOORD_0":7
			},
			"indices":4,
			"material":1
		}]
	},
	{
		"name":"Label Side B",
		"primitives":[{
			"attributes":{
				"POSITION":9,
				"NORMAL":10,
				"TEXCOORD_0":11
			},
			"indices":8,
			"material":1
		}]
	}],
	"accessors":[{
		"bufferView":0,
		"type":"SCALAR",
		"componentType":5123,
		"count":26784,
		"byteOffset":0,
		"min":[0],
		"max":[26783]
	},
	{
		"bufferView":1,
		"type":"VEC3",
		"componentType":5126,
		"count":26784,
		"byteOffset":0,
		"min":[-0.15049999952316285,
		-0.000750000006519258,
		-0.15049999952316285],
		"max":[0.15049999952316285,
		0.000750000006519258,
		0.15049999952316285]
	},
	{
		"bufferView":1,
		"type":"VEC3",
		"componentType":5126,
		"count":26784,
		"byteOffset":12,
		"min":[-0.9999737739562988,
		-1.0,
		-0.9999737739562988],
		"max":[0.9999737739562988,
		1.0,
		0.9999737739562988]
	},
	{
		"bufferView":1,
		"type":"VEC2",
		"componentType":5126,
		"count":26784,
		"byteOffset":24,
		"min":[-2.220446049250313e-16,
		-3.3306690738754698e-16],
		"max":[1.0,
		1.0]
	},
	{
		"bufferView":2,
		"type":"SCALAR",
		"componentType":5123,
		"count":2592,
		"byteOffset":0,
		"min":[0],
		"max":[2591]
	},
	{
		"bufferView":3,
		"type":"VEC3",
		"componentType":5126,
		"count":2592,
		"byteOffset":0,
		"min":[-0.0494999997317791,
		-0.0009500000160187483,
		-0.0494999997317791],
		"max":[0.0494999997317791,
		-0.000750000006519258,
		0.0494999997317791]
	},
	{
		"bufferView":3,
		"type":"VEC3",
		"componentType":5126,
		"count":2592,
		"byteOffset":12,
		"min":[-0.9999737739562988,
		-1.0,
		-0.9999737739562988],
		"max":[0.9999737739562988,
		0.0,
		0.9999737739562988]
	},
	{
		"bufferView":3,
		"type":"VEC2",
		"componentType":5126,
		"count":2592,
		"byteOffset":24,
		"min":[0.005050476640462875,
		0.005050476640462875],
		"max":[0.9949495196342468,
		0.994949460029602]
	},
	{
		"bufferView":4,
		"type":"SCALAR",
		"componentType":5123,
		"count":2592,
		"byteOffset":0,
		"min":[0],
		"max":[2591]
	},
	{
		"bufferView":5,
		"type":"VEC3",
		"componentType":5126,
		"count":2592,
		"byteOffset":0,
		"min":[-0.0494999997317791,
		0.000750000006519258,
		-0.0494999997317791],
		"max":[0.0494999997317791,
		0.0009500000160187483,
		0.0494999997317791]
	},
	{
		"bufferView":5,
		"type":"VEC3",
		"componentType":5126,
		"count":2592,
		"byteOffset":12,
		"min":[-0.9999737739562988,
		0.0,
		-0.9999737739562988],
		"max":[0.9999737739562988,
		1.0,
		0.9999737739562988]
	},
	{
		"bufferView":5,
		"type":"VEC2",
		"componentType":5126,
		"count":2592,
		"byteOffset":24,
		"min":[0.004999999888241291,
		0.004999999888241291],
		"max":[0.9950000047683716,
		0.9950000047683716]
	}],
	"bufferViews":[{
		"buffer":0,
		"byteOffset":0,
		"byteLength":53568,
		"target":34963
	},
	{
		"buffer":0,
		"byteOffset":53568,
		"byteLength":857088,
		"target":34962,
		"byteStride":32
	},
	{
		"buffer":1,
		"byteOffset":0,
		"byteLength":5184,
		"target":34963
	},
	{
		"buffer":1,
		"byteOffset":5184,
		"byteLength":82944,
		"target":34962,
		"byteStride":32
	},
	{
		"buffer":2,
		"byteOffset":0,
		"byteLength":5184,
		"target":34963
	},
	{
		"buffer":2,
		"byteOffset":5184,
		"byteLength":82944,
		"target":34962,
		"byteStride":32
	}],
	"buffers":[{
		"uri":"data:application/octet-stream;base64,",
		"byteLength":910656
	},
	{
		"uri":"data:application/octet-stream;base64,",
		"byteLength":88128
	},
	{
		"uri":"data:application/octet-stream;base64,",
		"byteLength":88128
	}],
	"images":[{
		"uri":"data:image/png;base64,"
	}],
	"samplers":[{
		"magFilter":9729,
		"minFilter":9729,
		"wrapS":10497,
		"wrapT":10497
	}],
	"textures":[{
		"sampler":0,
		"source":0
	}],
	"materials":[{
		"pbrMetallicRoughness":{
			"baseColorFactor":[0.0,
			0.0,
			0.0,
			1.0],
			"metallicFactor":0.0,
			"roughnessFactor":0.20000000298023225
		},
		"emissiveFactor":[0.0,
		0.0,
		0.0],
		"alphaMode":"OPAQUE",
		"doubleSided":false,
		"name":"RS Standard.1"
	},
	{
		"pbrMetallicRoughness":{
			"baseColorTexture":{
				"index":0
			},
			"baseColorFactor":[1.0,
			1.0,
			1.0,
			1.0],
			"metallicFactor":0.0,
			"roughnessFactor":0.20000000298023225
		},
		"emissiveFactor":[0.0,
		0.0,
		0.0],
		"alphaMode":"OPAQUE",
		"doubleSided":false,
		"name":"RS Standard"
	}]
}